<svg width="69" height="73" viewBox="0 0 69 73" fill="none" xmlns="http://www.w3.org/2000/svg">
<path d="M27.1309 16.7441C28.3657 16.7442 29.5604 16.7905 30.7148 16.8828C32.366 22.1661 37.2986 26 43.126 26C45.0924 26 46.9561 25.5618 48.627 24.7803C49.3723 25.6636 50.0083 26.6062 50.5322 27.6104C50.6158 27.7655 50.6959 27.9219 50.7734 28.0791H51.0205C52.0148 24.2441 53.5889 21.4386 55.7432 19.6631C57.9211 17.8876 60.4661 17 63.3779 17C64.2302 17 65.0708 17.0709 65.8994 17.2129C66.7517 17.3313 67.5684 17.5094 68.3496 17.7461V34.4717C67.379 34.1403 66.1831 33.8913 64.7627 33.7256C63.3424 33.5599 62.1234 33.4775 61.1055 33.4775C59.1879 33.4775 57.4597 33.9151 55.9209 34.791C54.4058 35.6433 53.2099 36.8507 52.334 38.4131C52.316 38.4447 52.2942 38.4756 52.2725 38.5078V72H50.9756L51.0205 72.2559H33.126L33.3047 64.7227C32.2579 66.5779 31.0053 68.0929 29.5449 69.2656C28.0061 70.5203 26.2425 71.4318 24.2539 72C22.2891 72.5681 20.1231 72.8525 17.7559 72.8525C14.2757 72.8525 11.1977 72.2838 8.52246 71.1475C5.87099 69.9874 3.78759 68.2353 2.27246 65.8916C0.757469 63.5479 2.44667e-05 60.5653 0 56.9434C0 53.9606 0.508513 51.4155 1.52637 49.3086C2.54436 47.1779 3.96517 45.4373 5.78809 44.0879C7.61093 42.7385 9.72988 41.7092 12.1445 40.999C14.583 40.2888 17.2111 39.8263 20.0283 39.6133C23.0821 39.3765 25.5324 39.0931 27.3789 38.7617C29.2492 38.4066 30.5991 37.9212 31.4277 37.3057C32.2562 36.6665 32.6699 35.8257 32.6699 34.7842V34.6416C32.6698 33.2215 32.1258 32.1325 31.0371 31.375C29.9482 30.6175 28.5511 30.2383 26.8467 30.2383C24.9765 30.2383 23.4493 30.6529 22.2656 31.4814C21.1056 32.2863 20.4067 33.5292 20.1699 35.21H2.13086C2.36764 31.8957 3.42081 28.8413 5.29102 26.0479C7.18495 23.2308 9.94342 20.9816 13.5654 19.3008C17.1875 17.5964 21.7097 16.7441 27.1309 16.7441ZM32.8125 48.1367C32.2917 48.3498 31.7353 48.5509 31.1436 48.7402C30.5755 48.9296 29.9596 49.1068 29.2969 49.2725C28.6578 49.4382 27.9711 49.5923 27.2373 49.7344C26.5272 49.8764 25.7812 50.0066 25 50.125C23.485 50.3617 22.2421 50.7525 21.2715 51.2969C20.3246 51.8177 19.6141 52.4688 19.1406 53.25C18.6908 54.0075 18.4658 54.8597 18.4658 55.8066C18.4658 57.3218 18.9982 58.4822 20.0635 59.2871C21.1288 60.092 22.4903 60.4941 24.1475 60.4941C25.6389 60.4941 27.0358 60.1868 28.3379 59.5713C29.6636 58.9558 30.7407 58.0673 31.5693 56.9072C32.3978 55.7472 32.8125 54.3387 32.8125 52.6816V48.1367ZM44.126 0C50.2011 0 55.126 4.92487 55.126 11C55.126 17.0751 50.2011 22 44.126 22C38.0508 22 33.126 17.0751 33.126 11C33.126 4.92487 38.0508 0 44.126 0Z" fill="white"/>
</svg>
